<?xml version="1.0" ?>
<svg version="1.1" viewBox="0 0 16 16" xml:space="preserve" xmlns="http://www.w3.org/2000/svg">
    <path d="M5,0H1v16h4V0z M4,14H2v-1h2V14z M4,12H2v-1h2V12z M4,10H2V9h2V10z M3,3C2.448,3,2,2.552,2,2c0-0.552,0.448-1,1-1  s1,0.448,1,1C4,2.552,3.552,3,3,3z"/>
    <path d="M6,16h4V0H6V16z M8,1c0.552,0,1,0.448,1,1c0,0.552-0.448,1-1,1S7,2.552,7,2C7,1.448,7.448,1,8,1z M7,9h2v1H7V9z M7,11h2v1H7  V11z M7,13h2v1H7V13z"/>
    <path d="M15,0h-4v16h4V0z M14,14h-2v-1h2V14z M14,12h-2v-1h2V12z M13,3c-0.552,0-1-0.448-1-1c0-0.552,0.448-1,1-1  s1,0.448,1,1C14,2.552,13.552,3,13,3z"/>
</svg>